<?xml version="1.0" encoding="UTF-8"?>
<svg width="22px" height="16px" viewBox="0 0 22 16" version="1.1" xmlns="http://www.w3.org/2000/svg" xmlns:xlink="http://www.w3.org/1999/xlink">
    <!-- Generator: Sketch 53.1 (72631) - https://sketchapp.com -->
    <title>Transfer@2x</title>
    <desc>Created with Sketch.</desc>
    <g id="首页" stroke="none" stroke-width="1" fill="none" fill-rule="evenodd">
        <g id="iPhone-8" transform="translate(-101.000000, -314.000000)">
            <g id="Transfer" transform="translate(100.000000, 310.000000)">
                <rect id="bg" x="0" y="0" width="24" height="24"></rect>
                <g id="Group-2" transform="translate(1.000000, 4.500000)">
                    <path d="M0,3.87323239 C0,3.87323239 8.8,-4.36620423 19.58,3.87323239 L22,1.97182394 L22,10.8450634 L16.5,10.8450634 L16.5,9.89435915 L20.35,9.89435915 L20.35,5.45773944 L19.36,6.40844366 C19.36,6.40844366 10.01,-1.93662676 0,3.87323239" id="Fill-1" fill="#222A8C"></path>
                    <path d="M22,11.1971408 C22,11.1971408 13.2,19.4365775 2.42,11.1971408 L0,13.0985493 L0,4.22530986 L5.5,4.22530986 L5.5,5.17601408 L1.65,5.17601408 L1.65,9.6126338 L2.64,8.66192958 C2.64,8.66192958 11.99,17.007 22,11.1971408" id="Fill-4" fill="#D5006A"></path>
                </g>
                <text id="换乘" font-family="PingFangSC-Regular, PingFang SC" font-size="6" font-weight="normal" letter-spacing="-0.5" fill="#36383D">
                    <tspan x="6" y="14">换</tspan>
                    <tspan x="11.5" y="14">乘</tspan>
                </text>
            </g>
        </g>
    </g>
</svg>